<mxfile host="app.diagrams.net" modified="2024-04-07T09:18:37.498Z" agent="Mozilla/5.0 (Windows NT 10.0; Win64; x64) AppleWebKit/537.36 (KHTML, like Gecko) Chrome/123.0.0.0 Safari/537.36 Edg/123.0.0.0" etag="S58F8GrqEm2Qsz15FkL2" version="24.2.2" type="github">
  <diagram id="C5RBs43oDa-KdzZeNtuy" name="Page-1">
    <mxGraphModel dx="827" dy="1201" grid="0" gridSize="10" guides="0" tooltips="0" connect="1" arrows="1" fold="1" page="0" pageScale="1" pageWidth="827" pageHeight="1169" math="0" shadow="0">
      <root>
        <mxCell id="WIyWlLk6GJQsqaUBKTNV-0" />
        <mxCell id="WIyWlLk6GJQsqaUBKTNV-1" parent="WIyWlLk6GJQsqaUBKTNV-0" />
        <mxCell id="NB3Tfqx_kRIX18TbMnRK-4" style="edgeStyle=orthogonalEdgeStyle;rounded=0;orthogonalLoop=1;jettySize=auto;html=1;entryX=0.5;entryY=0;entryDx=0;entryDy=0;dashed=1;endArrow=openThin;endFill=0;" edge="1" parent="WIyWlLk6GJQsqaUBKTNV-1" source="zkfFHV4jXpPFQw0GAbJ--0" target="zkfFHV4jXpPFQw0GAbJ--6">
          <mxGeometry relative="1" as="geometry" />
        </mxCell>
        <mxCell id="zkfFHV4jXpPFQw0GAbJ--0" value="UtagMyModelController" style="swimlane;fontStyle=2;align=center;verticalAlign=top;childLayout=stackLayout;horizontal=1;startSize=26;horizontalStack=0;resizeParent=1;resizeLast=0;collapsible=1;marginBottom=0;rounded=0;shadow=0;strokeWidth=1;fontSize=16;" parent="WIyWlLk6GJQsqaUBKTNV-1" vertex="1">
          <mxGeometry x="600" y="50" width="708" height="181" as="geometry">
            <mxRectangle x="230" y="140" width="160" height="26" as="alternateBounds" />
          </mxGeometry>
        </mxCell>
        <mxCell id="zkfFHV4jXpPFQw0GAbJ--1" value="- utagMyModelServiceImpl : UtagMyModelServiceImpl" style="text;align=left;verticalAlign=top;spacingLeft=4;spacingRight=4;overflow=hidden;rotatable=0;points=[[0,0.5],[1,0.5]];portConstraint=eastwest;fontSize=16;" parent="zkfFHV4jXpPFQw0GAbJ--0" vertex="1">
          <mxGeometry y="26" width="708" height="24" as="geometry" />
        </mxCell>
        <mxCell id="zkfFHV4jXpPFQw0GAbJ--4" value="" style="line;html=1;strokeWidth=1;align=left;verticalAlign=middle;spacingTop=-1;spacingLeft=3;spacingRight=3;rotatable=0;labelPosition=right;points=[];portConstraint=eastwest;fontSize=16;" parent="zkfFHV4jXpPFQw0GAbJ--0" vertex="1">
          <mxGeometry y="50" width="708" height="8" as="geometry" />
        </mxCell>
        <mxCell id="leDKgYyMwmwTG1ITvoYh-4" value="+ doCreate(ModelInfoDto modelInfoDto, HttpServletRequest request) : Result&#xa;+ doTrain(Long modelId, HttpServletRequest request) : Result&#xa;+ stopTrain(Long modelId, HttpServletRequest request) : Result&#xa;+ deleteModel(Long modelId, HttpServletRequest request) : Result&#xa;+ changeModelName(Long modelId, String newModelName, HttpServletRequest request) : Result&#xa;+ getModelDownloadUrl(Long modelId, HttpServletRequest request) : Result" style="text;align=left;verticalAlign=top;spacingLeft=4;spacingRight=4;overflow=hidden;rotatable=0;points=[[0,0.5],[1,0.5]];portConstraint=eastwest;fontSize=16;" parent="zkfFHV4jXpPFQw0GAbJ--0" vertex="1">
          <mxGeometry y="58" width="708" height="123" as="geometry" />
        </mxCell>
        <mxCell id="NB3Tfqx_kRIX18TbMnRK-7" style="edgeStyle=orthogonalEdgeStyle;rounded=0;orthogonalLoop=1;jettySize=auto;html=1;dashed=1;endArrow=openThin;endFill=0;" edge="1" parent="WIyWlLk6GJQsqaUBKTNV-1" source="zkfFHV4jXpPFQw0GAbJ--6" target="s-RZ2mOXNUzrkTFULdYA-3">
          <mxGeometry relative="1" as="geometry" />
        </mxCell>
        <mxCell id="NB3Tfqx_kRIX18TbMnRK-8" style="edgeStyle=orthogonalEdgeStyle;rounded=0;orthogonalLoop=1;jettySize=auto;html=1;entryX=0;entryY=0.5;entryDx=0;entryDy=0;dashed=1;endArrow=openThin;endFill=0;" edge="1" parent="WIyWlLk6GJQsqaUBKTNV-1" source="zkfFHV4jXpPFQw0GAbJ--6" target="lH0zRbGtRldlCOi7vXTI-2">
          <mxGeometry relative="1" as="geometry" />
        </mxCell>
        <mxCell id="NB3Tfqx_kRIX18TbMnRK-9" style="edgeStyle=orthogonalEdgeStyle;rounded=0;orthogonalLoop=1;jettySize=auto;html=1;entryX=0;entryY=0.5;entryDx=0;entryDy=0;dashed=1;endArrow=openThin;endFill=0;" edge="1" parent="WIyWlLk6GJQsqaUBKTNV-1" source="zkfFHV4jXpPFQw0GAbJ--6" target="lH0zRbGtRldlCOi7vXTI-6">
          <mxGeometry relative="1" as="geometry" />
        </mxCell>
        <mxCell id="NB3Tfqx_kRIX18TbMnRK-10" style="edgeStyle=orthogonalEdgeStyle;rounded=0;orthogonalLoop=1;jettySize=auto;html=1;entryX=0;entryY=0.5;entryDx=0;entryDy=0;dashed=1;endArrow=openThin;endFill=0;" edge="1" parent="WIyWlLk6GJQsqaUBKTNV-1" source="zkfFHV4jXpPFQw0GAbJ--6" target="lH0zRbGtRldlCOi7vXTI-10">
          <mxGeometry relative="1" as="geometry">
            <Array as="points">
              <mxPoint x="1108" y="445" />
              <mxPoint x="1108" y="553" />
            </Array>
          </mxGeometry>
        </mxCell>
        <mxCell id="NB3Tfqx_kRIX18TbMnRK-11" style="edgeStyle=orthogonalEdgeStyle;rounded=0;orthogonalLoop=1;jettySize=auto;html=1;entryX=0.5;entryY=0;entryDx=0;entryDy=0;dashed=1;endArrow=block;endFill=0;" edge="1" parent="WIyWlLk6GJQsqaUBKTNV-1" source="zkfFHV4jXpPFQw0GAbJ--6" target="leDKgYyMwmwTG1ITvoYh-6">
          <mxGeometry relative="1" as="geometry" />
        </mxCell>
        <mxCell id="NB3Tfqx_kRIX18TbMnRK-12" style="edgeStyle=orthogonalEdgeStyle;rounded=0;orthogonalLoop=1;jettySize=auto;html=1;entryX=0.5;entryY=0;entryDx=0;entryDy=0;dashed=1;endArrow=openThin;endFill=0;" edge="1" parent="WIyWlLk6GJQsqaUBKTNV-1" source="zkfFHV4jXpPFQw0GAbJ--6" target="s-RZ2mOXNUzrkTFULdYA-5">
          <mxGeometry relative="1" as="geometry">
            <Array as="points">
              <mxPoint x="771" y="620" />
              <mxPoint x="1325" y="620" />
            </Array>
          </mxGeometry>
        </mxCell>
        <mxCell id="zkfFHV4jXpPFQw0GAbJ--6" value="UtagMyModelServiceImpl" style="swimlane;fontStyle=0;align=center;verticalAlign=top;childLayout=stackLayout;horizontal=1;startSize=26;horizontalStack=0;resizeParent=1;resizeLast=0;collapsible=1;marginBottom=0;rounded=0;shadow=0;strokeWidth=1;fontSize=16;" parent="WIyWlLk6GJQsqaUBKTNV-1" vertex="1">
          <mxGeometry x="472" y="304" width="597" height="282" as="geometry">
            <mxRectangle x="130" y="380" width="160" height="26" as="alternateBounds" />
          </mxGeometry>
        </mxCell>
        <mxCell id="zkfFHV4jXpPFQw0GAbJ--7" value="- commonMongoQo : CommonMongoQo&#xa;- mongoTemplate : MongoTemplate&#xa;- redissonClient : RedissonClient&#xa;- utagModelTaskConfigRepository : UtagModelTaskConfigRepository&#xa;- utagModelTaskRunReposiroty : UtagModelTaskRunReposiroty&#xa;- utagModelRepository : UtagModelRepository&#xa;- trainService : TrainServiceImpl&#xa;- trainTaskResultWrapperService : TrainTaskResultWrapperServiceImpl" style="text;align=left;verticalAlign=top;spacingLeft=4;spacingRight=4;overflow=hidden;rotatable=0;points=[[0,0.5],[1,0.5]];portConstraint=eastwest;fontSize=16;" parent="zkfFHV4jXpPFQw0GAbJ--6" vertex="1">
          <mxGeometry y="26" width="597" height="121" as="geometry" />
        </mxCell>
        <mxCell id="zkfFHV4jXpPFQw0GAbJ--9" value="" style="line;html=1;strokeWidth=1;align=left;verticalAlign=middle;spacingTop=-1;spacingLeft=3;spacingRight=3;rotatable=0;labelPosition=right;points=[];portConstraint=eastwest;fontSize=16;" parent="zkfFHV4jXpPFQw0GAbJ--6" vertex="1">
          <mxGeometry y="147" width="597" height="7" as="geometry" />
        </mxCell>
        <mxCell id="zkfFHV4jXpPFQw0GAbJ--11" value="+ doCreate(ModelInfoDto modelInfoDto) : Result&#xa;+ doTrain(Long modelId) : Result&#xa;+ stopTrain(Long modelId, String userId) : Result&#xa;+ deleteModel(Long modelId, String userId) : Result&#xa;+ changeModelName(Long modelId, String newModelName,String userId) : Result&#xa;+ getModelDownloadUrl(Long modelId, String userId) : Result" style="text;align=left;verticalAlign=top;spacingLeft=4;spacingRight=4;overflow=hidden;rotatable=0;points=[[0,0.5],[1,0.5]];portConstraint=eastwest;fontSize=16;" parent="zkfFHV4jXpPFQw0GAbJ--6" vertex="1">
          <mxGeometry y="154" width="597" height="127" as="geometry" />
        </mxCell>
        <mxCell id="NB3Tfqx_kRIX18TbMnRK-18" style="edgeStyle=orthogonalEdgeStyle;rounded=0;orthogonalLoop=1;jettySize=auto;html=1;entryX=0;entryY=0.75;entryDx=0;entryDy=0;dashed=1;endArrow=openThin;endFill=0;" edge="1" parent="WIyWlLk6GJQsqaUBKTNV-1" source="leDKgYyMwmwTG1ITvoYh-6" target="s-RZ2mOXNUzrkTFULdYA-17">
          <mxGeometry relative="1" as="geometry">
            <Array as="points">
              <mxPoint x="451" y="742" />
              <mxPoint x="451" y="933" />
            </Array>
          </mxGeometry>
        </mxCell>
        <mxCell id="NB3Tfqx_kRIX18TbMnRK-20" style="edgeStyle=orthogonalEdgeStyle;rounded=0;orthogonalLoop=1;jettySize=auto;html=1;entryX=0;entryY=0.5;entryDx=0;entryDy=0;dashed=1;endArrow=openThin;endFill=0;" edge="1" parent="WIyWlLk6GJQsqaUBKTNV-1" source="leDKgYyMwmwTG1ITvoYh-6" target="lH0zRbGtRldlCOi7vXTI-0">
          <mxGeometry relative="1" as="geometry">
            <Array as="points">
              <mxPoint x="451" y="742" />
              <mxPoint x="451" y="1147" />
            </Array>
          </mxGeometry>
        </mxCell>
        <mxCell id="leDKgYyMwmwTG1ITvoYh-6" value="&lt;&lt;interface&gt;&gt;&#xa;UtagMyModelService" style="swimlane;fontStyle=0;align=center;verticalAlign=top;childLayout=stackLayout;horizontal=1;startSize=49;horizontalStack=0;resizeParent=1;resizeLast=0;collapsible=1;marginBottom=0;rounded=0;shadow=0;strokeWidth=1;fontSize=16;" parent="WIyWlLk6GJQsqaUBKTNV-1" vertex="1">
          <mxGeometry x="472" y="655" width="597" height="174" as="geometry">
            <mxRectangle x="130" y="380" width="160" height="26" as="alternateBounds" />
          </mxGeometry>
        </mxCell>
        <mxCell id="leDKgYyMwmwTG1ITvoYh-9" value="+ doCreate(ModelInfoDto modelInfoDto) : Result&#xa;+ doTrain(Long modelId) : Result&#xa;+ stopTrain(Long modelId, String userId) : Result&#xa;+ deleteModel(Long modelId, String userId) : Result&#xa;+ changeModelName(Long modelId, String newModelName,String userId) : Result&#xa;+ getModelDownloadUrl(Long modelId, String userId) : Result" style="text;align=left;verticalAlign=top;spacingLeft=4;spacingRight=4;overflow=hidden;rotatable=0;points=[[0,0.5],[1,0.5]];portConstraint=eastwest;fontSize=16;" parent="leDKgYyMwmwTG1ITvoYh-6" vertex="1">
          <mxGeometry y="49" width="597" height="125" as="geometry" />
        </mxCell>
        <mxCell id="ijNItwPhicT-rT-5I67z-0" value="BaseController" style="swimlane;fontStyle=2;align=center;verticalAlign=top;childLayout=stackLayout;horizontal=1;startSize=26;horizontalStack=0;resizeParent=1;resizeLast=0;collapsible=1;marginBottom=0;rounded=0;shadow=0;strokeWidth=1;fontSize=16;" parent="WIyWlLk6GJQsqaUBKTNV-1" vertex="1">
          <mxGeometry x="751" y="-99" width="400" height="92" as="geometry">
            <mxRectangle x="230" y="140" width="160" height="26" as="alternateBounds" />
          </mxGeometry>
        </mxCell>
        <mxCell id="ijNItwPhicT-rT-5I67z-3" value="# getUserId() : String&#xa;# getUserName() : String&#xa;# getFileSecurity(HttpServletRequest request) : Integer" style="text;align=left;verticalAlign=top;spacingLeft=4;spacingRight=4;overflow=hidden;rotatable=0;points=[[0,0.5],[1,0.5]];portConstraint=eastwest;fontSize=16;" parent="ijNItwPhicT-rT-5I67z-0" vertex="1">
          <mxGeometry y="26" width="400" height="66" as="geometry" />
        </mxCell>
        <mxCell id="s-RZ2mOXNUzrkTFULdYA-0" value="&lt;&lt;interface&gt;&gt;&#xa;CommonMongoQo" style="swimlane;fontStyle=0;align=center;verticalAlign=top;childLayout=stackLayout;horizontal=1;startSize=46;horizontalStack=0;resizeParent=1;resizeLast=0;collapsible=1;marginBottom=0;rounded=0;shadow=0;strokeWidth=1;fontSize=16;" parent="WIyWlLk6GJQsqaUBKTNV-1" vertex="1">
          <mxGeometry x="1115" y="868" width="420" height="132" as="geometry">
            <mxRectangle x="130" y="380" width="160" height="26" as="alternateBounds" />
          </mxGeometry>
        </mxCell>
        <mxCell id="s-RZ2mOXNUzrkTFULdYA-1" value="~ getPkId() : Long&#xa;~ insertInfo(T entity) : &lt;T extends BaseEntity&gt;&#xa;~ batchInsert(List&lt;T&gt; entityList) : &lt;T extends BaseEntity&gt;&#xa;~ save(T entity) : &lt;T extends BaseEntity&gt;&#xa;..." style="text;align=left;verticalAlign=top;spacingLeft=4;spacingRight=4;overflow=hidden;rotatable=0;points=[[0,0.5],[1,0.5]];portConstraint=eastwest;fontSize=16;" parent="s-RZ2mOXNUzrkTFULdYA-0" vertex="1">
          <mxGeometry y="46" width="420" height="82" as="geometry" />
        </mxCell>
        <mxCell id="s-RZ2mOXNUzrkTFULdYA-2" value="MongoTemplate" style="swimlane;fontStyle=0;align=center;verticalAlign=top;childLayout=stackLayout;horizontal=1;startSize=27;horizontalStack=0;resizeParent=1;resizeLast=0;collapsible=1;marginBottom=0;rounded=0;shadow=0;strokeWidth=1;fontSize=16;" parent="WIyWlLk6GJQsqaUBKTNV-1" vertex="1">
          <mxGeometry x="1147" y="298" width="153" height="65" as="geometry">
            <mxRectangle x="130" y="380" width="160" height="26" as="alternateBounds" />
          </mxGeometry>
        </mxCell>
        <mxCell id="s-RZ2mOXNUzrkTFULdYA-3" value="..." style="text;align=left;verticalAlign=top;spacingLeft=4;spacingRight=4;overflow=hidden;rotatable=0;points=[[0,0.5],[1,0.5]];portConstraint=eastwest;fontSize=16;" parent="s-RZ2mOXNUzrkTFULdYA-2" vertex="1">
          <mxGeometry y="27" width="153" height="38" as="geometry" />
        </mxCell>
        <mxCell id="NB3Tfqx_kRIX18TbMnRK-13" style="edgeStyle=orthogonalEdgeStyle;rounded=0;orthogonalLoop=1;jettySize=auto;html=1;dashed=1;endArrow=block;endFill=0;" edge="1" parent="WIyWlLk6GJQsqaUBKTNV-1" source="s-RZ2mOXNUzrkTFULdYA-5" target="s-RZ2mOXNUzrkTFULdYA-0">
          <mxGeometry relative="1" as="geometry" />
        </mxCell>
        <mxCell id="s-RZ2mOXNUzrkTFULdYA-5" value="CommonMongoQoImpl" style="swimlane;fontStyle=0;align=center;verticalAlign=top;childLayout=stackLayout;horizontal=1;startSize=26;horizontalStack=0;resizeParent=1;resizeLast=0;collapsible=1;marginBottom=0;rounded=0;shadow=0;strokeWidth=1;fontSize=16;" parent="WIyWlLk6GJQsqaUBKTNV-1" vertex="1">
          <mxGeometry x="1115" y="657" width="420" height="145" as="geometry">
            <mxRectangle x="130" y="380" width="160" height="26" as="alternateBounds" />
          </mxGeometry>
        </mxCell>
        <mxCell id="s-RZ2mOXNUzrkTFULdYA-6" value="- mongoRepository : CommonMongoRepository" style="text;align=left;verticalAlign=top;spacingLeft=4;spacingRight=4;overflow=hidden;rotatable=0;points=[[0,0.5],[1,0.5]];portConstraint=eastwest;fontSize=16;" parent="s-RZ2mOXNUzrkTFULdYA-5" vertex="1">
          <mxGeometry y="26" width="420" height="25" as="geometry" />
        </mxCell>
        <mxCell id="s-RZ2mOXNUzrkTFULdYA-7" value="" style="line;html=1;strokeWidth=1;align=left;verticalAlign=middle;spacingTop=-1;spacingLeft=3;spacingRight=3;rotatable=0;labelPosition=right;points=[];portConstraint=eastwest;fontSize=16;" parent="s-RZ2mOXNUzrkTFULdYA-5" vertex="1">
          <mxGeometry y="51" width="420" height="8" as="geometry" />
        </mxCell>
        <mxCell id="s-RZ2mOXNUzrkTFULdYA-8" value="~ getPkId() : Long&#xa;~ insertInfo(T entity) : &lt;T extends BaseEntity&gt;&#xa;~ batchInsert(List&lt;T&gt; entityList) : &lt;T extends BaseEntity&gt;&#xa;~ save(T entity) : &lt;T extends BaseEntity&gt;&#xa;..." style="text;align=left;verticalAlign=top;spacingLeft=4;spacingRight=4;overflow=hidden;rotatable=0;points=[[0,0.5],[1,0.5]];portConstraint=eastwest;fontSize=16;" parent="s-RZ2mOXNUzrkTFULdYA-5" vertex="1">
          <mxGeometry y="59" width="420" height="86" as="geometry" />
        </mxCell>
        <mxCell id="NB3Tfqx_kRIX18TbMnRK-15" style="edgeStyle=orthogonalEdgeStyle;rounded=0;orthogonalLoop=1;jettySize=auto;html=1;entryX=0;entryY=0.5;entryDx=0;entryDy=0;endArrow=blockThin;endFill=0;" edge="1" parent="WIyWlLk6GJQsqaUBKTNV-1" source="s-RZ2mOXNUzrkTFULdYA-12" target="s-RZ2mOXNUzrkTFULdYA-15">
          <mxGeometry relative="1" as="geometry">
            <Array as="points">
              <mxPoint x="837" y="1030" />
              <mxPoint x="837" y="1147" />
            </Array>
          </mxGeometry>
        </mxCell>
        <mxCell id="s-RZ2mOXNUzrkTFULdYA-12" value="&lt;&lt;interface&gt;&gt;&#xa;UtagModelTaskConfigRepository" style="swimlane;fontStyle=0;align=center;verticalAlign=top;childLayout=stackLayout;horizontal=1;startSize=49;horizontalStack=0;resizeParent=1;resizeLast=0;collapsible=1;marginBottom=0;rounded=0;shadow=0;strokeWidth=1;fontSize=16;" parent="WIyWlLk6GJQsqaUBKTNV-1" vertex="1">
          <mxGeometry x="470" y="990" width="261" height="79" as="geometry">
            <mxRectangle x="130" y="380" width="160" height="26" as="alternateBounds" />
          </mxGeometry>
        </mxCell>
        <mxCell id="s-RZ2mOXNUzrkTFULdYA-13" value="..." style="text;align=left;verticalAlign=top;spacingLeft=4;spacingRight=4;overflow=hidden;rotatable=0;points=[[0,0.5],[1,0.5]];portConstraint=eastwest;fontSize=16;" parent="s-RZ2mOXNUzrkTFULdYA-12" vertex="1">
          <mxGeometry y="49" width="261" height="30" as="geometry" />
        </mxCell>
        <mxCell id="s-RZ2mOXNUzrkTFULdYA-14" value="&lt;&lt;interface&gt;&gt;&#xa;BaseMapper" style="swimlane;fontStyle=0;align=center;verticalAlign=top;childLayout=stackLayout;horizontal=1;startSize=48;horizontalStack=0;resizeParent=1;resizeLast=0;collapsible=1;marginBottom=0;rounded=0;shadow=0;strokeWidth=1;fontSize=16;" parent="WIyWlLk6GJQsqaUBKTNV-1" vertex="1">
          <mxGeometry x="934" y="1056" width="382" height="134" as="geometry">
            <mxRectangle x="130" y="380" width="160" height="26" as="alternateBounds" />
          </mxGeometry>
        </mxCell>
        <mxCell id="s-RZ2mOXNUzrkTFULdYA-15" value="~ insert(T entity) : int&#xa;~ deleteById(Serializable id) : int&#xa;~ update(T entity, Wrapper&lt;T&gt; updateWrapper) : int&#xa;..." style="text;align=left;verticalAlign=top;spacingLeft=4;spacingRight=4;overflow=hidden;rotatable=0;points=[[0,0.5],[1,0.5]];portConstraint=eastwest;fontSize=16;" parent="s-RZ2mOXNUzrkTFULdYA-14" vertex="1">
          <mxGeometry y="48" width="382" height="86" as="geometry" />
        </mxCell>
        <mxCell id="NB3Tfqx_kRIX18TbMnRK-14" style="edgeStyle=orthogonalEdgeStyle;rounded=0;orthogonalLoop=1;jettySize=auto;html=1;entryX=0;entryY=0.5;entryDx=0;entryDy=0;endArrow=blockThin;endFill=0;" edge="1" parent="WIyWlLk6GJQsqaUBKTNV-1" source="s-RZ2mOXNUzrkTFULdYA-17" target="s-RZ2mOXNUzrkTFULdYA-15">
          <mxGeometry relative="1" as="geometry">
            <Array as="points">
              <mxPoint x="837" y="915" />
              <mxPoint x="837" y="1147" />
            </Array>
          </mxGeometry>
        </mxCell>
        <mxCell id="s-RZ2mOXNUzrkTFULdYA-17" value="&lt;&lt;interface&gt;&gt;&#xa;UtagModelTaskRunReposiroty" style="swimlane;fontStyle=0;align=center;verticalAlign=top;childLayout=stackLayout;horizontal=1;startSize=47;horizontalStack=0;resizeParent=1;resizeLast=0;collapsible=1;marginBottom=0;rounded=0;shadow=0;strokeWidth=1;fontSize=16;" parent="WIyWlLk6GJQsqaUBKTNV-1" vertex="1">
          <mxGeometry x="471" y="879" width="241" height="72" as="geometry">
            <mxRectangle x="130" y="380" width="160" height="26" as="alternateBounds" />
          </mxGeometry>
        </mxCell>
        <mxCell id="NB3Tfqx_kRIX18TbMnRK-16" style="edgeStyle=orthogonalEdgeStyle;rounded=0;orthogonalLoop=1;jettySize=auto;html=1;entryX=0;entryY=0.5;entryDx=0;entryDy=0;endArrow=blockThin;endFill=0;" edge="1" parent="WIyWlLk6GJQsqaUBKTNV-1" source="lH0zRbGtRldlCOi7vXTI-0" target="s-RZ2mOXNUzrkTFULdYA-15">
          <mxGeometry relative="1" as="geometry" />
        </mxCell>
        <mxCell id="lH0zRbGtRldlCOi7vXTI-0" value="&lt;&lt;interface&gt;&gt;&#xa;UtagModelRepository" style="swimlane;fontStyle=0;align=center;verticalAlign=top;childLayout=stackLayout;horizontal=1;startSize=48;horizontalStack=0;resizeParent=1;resizeLast=0;collapsible=1;marginBottom=0;rounded=0;shadow=0;strokeWidth=1;fontSize=16;" parent="WIyWlLk6GJQsqaUBKTNV-1" vertex="1">
          <mxGeometry x="478" y="1107" width="200" height="79" as="geometry">
            <mxRectangle x="130" y="380" width="160" height="26" as="alternateBounds" />
          </mxGeometry>
        </mxCell>
        <mxCell id="lH0zRbGtRldlCOi7vXTI-2" value="TrainServiceImpl" style="swimlane;fontStyle=0;align=center;verticalAlign=top;childLayout=stackLayout;horizontal=1;startSize=26;horizontalStack=0;resizeParent=1;resizeLast=0;collapsible=1;marginBottom=0;rounded=0;shadow=0;strokeWidth=1;fontSize=16;" parent="WIyWlLk6GJQsqaUBKTNV-1" vertex="1">
          <mxGeometry x="1147" y="387" width="162" height="54" as="geometry">
            <mxRectangle x="130" y="380" width="160" height="26" as="alternateBounds" />
          </mxGeometry>
        </mxCell>
        <mxCell id="lH0zRbGtRldlCOi7vXTI-6" value="TrainTaskResultWrapperServiceImpl" style="swimlane;fontStyle=0;align=center;verticalAlign=top;childLayout=stackLayout;horizontal=1;startSize=26;horizontalStack=0;resizeParent=1;resizeLast=0;collapsible=1;marginBottom=0;rounded=0;shadow=0;strokeWidth=1;fontSize=16;" parent="WIyWlLk6GJQsqaUBKTNV-1" vertex="1">
          <mxGeometry x="1147" y="455" width="294" height="53" as="geometry">
            <mxRectangle x="130" y="380" width="160" height="26" as="alternateBounds" />
          </mxGeometry>
        </mxCell>
        <mxCell id="lH0zRbGtRldlCOi7vXTI-10" value="RedissonClient" style="swimlane;fontStyle=0;align=center;verticalAlign=top;childLayout=stackLayout;horizontal=1;startSize=26;horizontalStack=0;resizeParent=1;resizeLast=0;collapsible=1;marginBottom=0;rounded=0;shadow=0;strokeWidth=1;fontSize=16;" parent="WIyWlLk6GJQsqaUBKTNV-1" vertex="1">
          <mxGeometry x="1146" y="526" width="184" height="53" as="geometry">
            <mxRectangle x="130" y="380" width="160" height="26" as="alternateBounds" />
          </mxGeometry>
        </mxCell>
        <mxCell id="NB3Tfqx_kRIX18TbMnRK-3" style="edgeStyle=orthogonalEdgeStyle;rounded=0;orthogonalLoop=1;jettySize=auto;html=1;entryX=0.508;entryY=1;entryDx=0;entryDy=0;entryPerimeter=0;endArrow=block;endFill=0;" edge="1" parent="WIyWlLk6GJQsqaUBKTNV-1" source="zkfFHV4jXpPFQw0GAbJ--0" target="ijNItwPhicT-rT-5I67z-3">
          <mxGeometry relative="1" as="geometry" />
        </mxCell>
        <mxCell id="NB3Tfqx_kRIX18TbMnRK-19" style="edgeStyle=orthogonalEdgeStyle;rounded=0;orthogonalLoop=1;jettySize=auto;html=1;entryX=0;entryY=0.135;entryDx=0;entryDy=0;entryPerimeter=0;dashed=1;endArrow=openThin;endFill=0;" edge="1" parent="WIyWlLk6GJQsqaUBKTNV-1" source="leDKgYyMwmwTG1ITvoYh-6" target="s-RZ2mOXNUzrkTFULdYA-13">
          <mxGeometry relative="1" as="geometry">
            <Array as="points">
              <mxPoint x="451" y="742" />
              <mxPoint x="451" y="1043" />
            </Array>
          </mxGeometry>
        </mxCell>
      </root>
    </mxGraphModel>
  </diagram>
</mxfile>
